<svg width="44" height="44" viewBox="0 0 44 44" fill="none" xmlns="http://www.w3.org/2000/svg">
<path d="M44 29C44 37.2843 37.2843 44 29 44L15 44C6.71573 44 3.22759e-06 37.2843 2.50336e-06 29L1.27944e-06 15C5.55202e-07 6.71573 6.71573 -5.55203e-07 15 -1.27944e-06L29 -2.50336e-06C37.2843 -3.22759e-06 44 6.71572 44 15L44 29Z" fill="white" fill-opacity="0.62"/>
<path d="M26.893 14.3067L14.3072 26.8925C13.9167 27.283 13.9167 27.9162 14.3072 28.3067L15.693 29.6925C16.0835 30.083 16.7167 30.083 17.1072 29.6925L29.693 17.1067C30.0835 16.7162 30.0835 16.083 29.693 15.6925L28.3072 14.3067C27.9167 13.9162 27.2835 13.9162 26.893 14.3067Z" fill="#D34E4E"/>
<path d="M29.6928 26.8925L17.107 14.3067C16.7165 13.9162 16.0833 13.9162 15.6928 14.3067L14.307 15.6925C13.9165 16.083 13.9165 16.7162 14.307 17.1067L26.8928 29.6925C27.2833 30.083 27.9165 30.083 28.307 29.6925L29.6928 28.3067C30.0833 27.9162 30.0833 27.283 29.6928 26.8925Z" fill="#D34E4E"/>
</svg>
