<svg width="44" height="44" viewBox="0 0 44 44" fill="none" xmlns="http://www.w3.org/2000/svg">
<path d="M44 29C44 37.2843 37.2843 44 29 44L15 44C6.71573 44 3.22759e-06 37.2843 2.50336e-06 29L1.27944e-06 15C5.55202e-07 6.71573 6.71573 -5.55203e-07 15 -1.27944e-06L29 -2.50336e-06C37.2843 -3.22759e-06 44 6.71572 44 15L44 29Z" fill="white" fill-opacity="0.62"/>
<path fill-rule="evenodd" clip-rule="evenodd" d="M28.8811 12.7355C27.5198 14.0081 26.2587 15.3843 24.1215 17.9292C22.3082 20.0885 21.3316 21.4792 19.401 24.6515L18.7184 25.7731L17.9454 24.9865C16.6922 23.7115 15.634 22.8475 14.6308 22.2803L14.2657 22.0738L12.1328 22.0855L10 22.0971L10.2998 22.2941C11.886 23.3367 13.9639 25.3616 15.4736 27.3359C16.6419 28.8638 17.5907 30.4383 18.4117 32.2117L18.7768 33L19.5444 31.4441C20.7266 29.0479 21.7274 27.2486 23.1497 24.9628C25.7897 20.7198 29.0488 16.3759 32.2621 12.8172L33 12L31.3323 12.0015L29.6646 12.003L28.8811 12.7355Z" fill="#00BCA2"/>
</svg>
